<?xml version="1.0" standalone="no"?>
<!DOCTYPE svg PUBLIC "-//W3C//DTD SVG 20010904//EN"
 "http://www.w3.org/TR/2001/REC-SVG-20010904/DTD/svg10.dtd">
<svg version="1.0" xmlns="http://www.w3.org/2000/svg"
 width="512.000000pt" height="512.000000pt" viewBox="0 0 512.000000 512.000000"
 preserveAspectRatio="xMidYMid meet">

<g transform="translate(0.000000,512.000000) scale(0.100000,-0.100000)"
fill="#000000" stroke="none">
<path d="M2275 4674 c-923 -129 -1650 -832 -1818 -1759 -18 -101 -22 -157 -22
-355 0 -265 15 -374 79 -596 206 -714 795 -1283 1518 -1468 204 -52 366 -70
593 -63 270 8 477 49 715 143 634 251 1116 798 1284 1456 186 728 -24 1497
-554 2028 -318 320 -690 515 -1145 601 -149 28 -491 35 -650 13z m1307 -1123
c23 -26 28 -40 28 -84 0 -71 -373 -1867 -394 -1900 -27 -40 -69 -53 -115 -35
-21 8 -164 113 -319 232 l-282 218 -58 -50 c-31 -28 -103 -97 -160 -155 -56
-57 -118 -113 -137 -123 -33 -17 -38 -18 -63 -4 -15 9 -34 31 -43 50 -9 19
-58 178 -110 352 l-94 317 -305 102 c-168 56 -317 110 -332 121 -36 25 -38 75
-6 105 38 34 78 51 778 318 371 142 860 330 1085 417 460 177 472 180 527 119z"/>
<path d="M3075 3187 c-37 -21 -1185 -746 -1194 -753 -2 -1 39 -143 90 -313 51
-171 94 -309 97 -307 2 2 12 93 23 203 l20 198 38 35 c20 19 233 210 472 424
439 394 569 514 569 528 0 17 -77 7 -115 -15z"/>
</g>
</svg>
