<?xml version="1.0" standalone="no"?>
<!DOCTYPE svg PUBLIC "-//W3C//DTD SVG 20010904//EN"
 "http://www.w3.org/TR/2001/REC-SVG-20010904/DTD/svg10.dtd">
<svg version="1.0" xmlns="http://www.w3.org/2000/svg"
 width="866.000000pt" height="650.000000pt" viewBox="0 0 866.000000 650.000000"
 preserveAspectRatio="xMidYMid meet">

<g transform="translate(0.000000,650.000000) scale(0.100000,-0.100000)"
fill="#000000" stroke="none">
<path d="M1935 6184 c-38 -8 -113 -35 -164 -61 -78 -38 -110 -61 -182 -132
-73 -73 -93 -100 -132 -181 -83 -173 -77 36 -77 -2560 0 -2596 -6 -2387 77
-2560 38 -79 59 -108 132 -181 73 -73 102 -94 181 -132 173 -83 -36 -77 2560
-77 2596 0 2389 -6 2560 77 80 39 109 59 182 133 72 73 94 103 131 181 83 172
77 -37 77 2559 0 2596 6 2387 -77 2560 -38 79 -59 108 -132 181 -73 73 -102
94 -181 132 -173 83 38 77 -2567 76 -1977 -1 -2328 -3 -2388 -15z m3124 -1039
c26 -156 94 -311 197 -448 170 -226 424 -373 712 -412 l52 -7 0 -323 c0 -367
9 -335 -95 -335 -317 0 -630 151 -827 398 l-58 73 0 -833 c0 -516 -4 -866 -10
-918 -50 -404 -295 -754 -655 -933 -580 -289 -1280 -66 -1588 505 -156 289
-184 646 -76 956 67 191 166 342 316 482 214 200 464 306 753 317 l135 6 -2
-199 c-1 -110 -3 -242 -3 -294 l0 -95 -88 -1 c-101 -1 -151 -13 -247 -59 -318
-153 -439 -545 -262 -853 77 -135 227 -249 378 -288 75 -19 202 -21 284 -4
186 38 359 169 440 333 68 138 65 63 65 1610 l0 1397 283 0 283 0 13 -75z"/>
</g>
</svg>
