<?xml version="1.0" encoding="UTF-8"?>
<!-- Generator: visioncortex VTracer 0.6.2 -->
<svg version="1.1" xmlns="http://www.w3.org/2000/svg" width="1280" height="772">
<path d="M0 0 C1.45373753 1.15575578 2.92483577 2.28960237 4.3984375 3.41992188 C11.53451271 8.95495457 18.10220428 15.10063793 24.6484375 21.31054688 C25.40382813 22.02339844 26.15921875 22.73625 26.9375 23.47070312 C32.32435632 28.6965976 36.9958513 34.43073427 41.6484375 40.31054688 C42.82212891 41.75880859 42.82212891 41.75880859 44.01953125 43.23632812 C55.06564507 57.14559464 64.16214352 72.22182054 71.6484375 88.31054688 C71.9779541 88.99906738 72.3074707 89.68758789 72.64697266 90.39697266 C80.3488301 106.51157156 85.75564707 123.15465011 89.4609375 140.62304688 C89.65582764 141.53973145 89.85071777 142.45641602 90.05151367 143.40087891 C92.96005616 157.96025553 93.98094303 172.30358704 93.90917969 187.12133789 C93.89845983 189.74258615 93.90914941 192.36314727 93.921875 194.984375 C93.93685026 210.76931389 92.5356456 226.08440979 89.0234375 241.49804688 C88.76546387 242.63878662 88.50749023 243.77952637 88.24169922 244.95483398 C79.61875642 281.62650548 62.25099444 315.80426319 37.6484375 344.31054688 C36.99101563 345.07882812 36.33359375 345.84710938 35.65625 346.63867188 C24.92473312 358.86855149 13.45907437 370.41847634 0.33544922 380.06787109 C-1.32257799 381.28919649 -2.96032748 382.53432604 -4.59765625 383.78320312 C-26.97833063 400.59117947 -53.32332118 413.13866396 -80.3515625 420.31054688 C-81.19187012 420.53436035 -82.03217773 420.75817383 -82.89794922 420.98876953 C-144.94134012 437.10557705 -210.6056291 427.71535183 -265.99755859 395.70263672 C-281.79860554 386.35835444 -296.14532799 375.04002201 -309.3515625 362.31054688 C-309.95677734 361.72724609 -310.56199219 361.14394531 -311.18554688 360.54296875 C-319.09603917 352.87243072 -326.72688857 345.14344545 -333.3515625 336.31054688 C-333.79532227 335.72144531 -334.23908203 335.13234375 -334.69628906 334.52539062 C-362.74637617 296.97354987 -382.45448363 249.16221994 -382.51953125 201.77929688 C-382.52285965 200.90390259 -382.52618805 200.0285083 -382.52961731 199.12658691 C-382.53464343 197.28459186 -382.53702698 195.44258784 -382.53686523 193.60058594 C-382.53903545 190.84489097 -382.55719307 188.08960799 -382.57617188 185.33398438 C-382.62909391 169.28627631 -381.29930278 153.79657651 -377.7265625 138.12304688 C-377.33742676 136.40758667 -377.33742676 136.40758667 -376.94042969 134.6574707 C-366.65517085 91.01159412 -343.97620487 53.61340209 -313.3515625 21.31054688 C-312.28421875 20.17939453 -312.28421875 20.17939453 -311.1953125 19.02539062 C-305.96791057 13.63731036 -300.232909 8.96434682 -294.3515625 4.31054688 C-293.38605469 3.52808594 -292.42054688 2.745625 -291.42578125 1.93945312 C-277.51651473 -9.10666069 -262.44028884 -18.20315914 -246.3515625 -25.68945312 C-245.66304199 -26.01896973 -244.97452148 -26.34848633 -244.26513672 -26.68798828 C-220.65920088 -37.9702767 -194.47741751 -45.53264097 -168.3515625 -47.68945312 C-167.30560913 -47.77960693 -167.30560913 -47.77960693 -166.23852539 -47.87158203 C-107.42862509 -52.49221724 -46.55341717 -37.04960821 0 0 Z " fill="#000002" transform="translate(784.3515625,48.689453125)"/>
<path d="M0 0 C4.80179509 3.50780485 8.59059731 8.57152014 10.07421875 14.3671875 C10.90726823 20.36514374 10.253631 24.94404886 8.16015625 30.546875 C6.43691564 35.19776421 6.43691564 35.19776421 7.31965637 39.88386536 C7.80689682 40.5883934 8.29413727 41.29292145 8.79614258 42.01879883 C9.344543 42.82767044 9.89294342 43.63654205 10.45796204 44.46992493 C11.06609238 45.33449814 11.67422272 46.19907135 12.30078125 47.08984375 C12.92216476 47.99925217 13.54354828 48.90866058 14.1837616 49.84562683 C16.18149242 52.76372001 18.19918746 55.66729672 20.21875 58.5703125 C22.83482295 62.3647909 25.44306206 66.16462118 28.05078125 69.96484375 C28.68613297 70.88777222 29.32148468 71.81070068 29.97608948 72.76159668 C34.64403869 79.56753992 39.10462054 86.47715437 43.41699219 93.51293945 C47.93627118 101.52738469 47.93627118 101.52738469 54.40625 107.7578125 C56.74648315 107.47698452 59.07930036 107.13312696 61.40625 106.7578125 C67.05465071 106.29133776 71.34664755 106.72915747 76.484375 109.19921875 C79.12111151 109.96558729 80.77450537 109.49519522 83.40625 108.7578125 C85.29779374 107.42619553 85.29779374 107.42619553 86.9296875 105.66015625 C87.86675537 104.71148682 87.86675537 104.71148682 88.82275391 103.74365234 C89.46905762 103.0677002 90.11536133 102.39174805 90.78125 101.6953125 C91.79131104 100.66204834 91.79131104 100.66204834 92.82177734 99.60791016 C96.52160453 95.80003253 100.10442849 91.92280456 103.5234375 87.859375 C106.81097046 84.189888 110.35683707 80.76842957 113.87744141 77.32373047 C115.40585146 75.81900963 116.91083286 74.29524027 118.40625 72.7578125 C119.04175781 72.10683594 119.67726563 71.45585937 120.33203125 70.78515625 C121.94205651 67.74659949 121.31325149 65.43076017 120.84375 62.0703125 C120.21157553 55.45996637 120.86147445 51.34351943 124.40625 45.7578125 C124.98375 44.8296875 125.56125 43.9015625 126.15625 42.9453125 C130.55357947 38.67013107 136.50153947 36.04258804 142.59375 35.4453125 C149.00936298 35.97118242 153.48766831 38.41073728 157.78125 43.1953125 C162.96378036 49.43461581 163.05499945 55.9515486 162.40625 63.7578125 C160.64449458 69.59362732 156.22061503 73.23439615 151.40625 76.7578125 C144.81678892 78.95429953 136.74820101 78.57645739 130.40625 75.7578125 C129.68099121 76.48379639 128.95573242 77.20978027 128.20849609 77.95776367 C125.66760844 80.49665899 123.12021128 83.02875492 120.5703125 85.55859375 C118.72388651 87.39576115 116.87753454 89.23300295 115.03125 91.0703125 C114.11085938 91.98232422 113.19046875 92.89433594 112.2421875 93.83398438 C107.60791715 98.45170376 103.1294274 103.11807519 98.87646484 108.08911133 C96.40592885 110.89318199 93.60538927 113.32573945 90.8125 115.80078125 C89.12814253 117.6957919 89.12814253 117.6957919 89.625 120.24609375 C90.0751757 121.69340864 90.53714247 123.13740068 91.03125 124.5703125 C91.40625 126.7578125 91.40625 126.7578125 90.90625 130.4453125 C90.29807391 135.01620241 89.90614444 139.32475599 91.40625 143.7578125 C95.17829986 148.55407868 100.81931621 151.36205783 106.04150391 154.32861328 C108.37698969 155.74012823 110.46888425 157.27794818 112.60546875 158.97265625 C121.24818494 165.81547492 121.24818494 165.81547492 132.03125 166.6953125 C133.165625 166.50710938 134.3 166.31890625 135.46875 166.125 C138.40625 165.7578125 138.40625 165.7578125 142.03125 167.3203125 C146.5870152 171.99596626 148.6679368 175.08136084 149.03125 181.6953125 C148.86630366 186.99998666 147.70973199 189.79798263 144.01171875 193.55078125 C140.42604317 196.24658114 136.35879638 196.2120966 132.046875 196.16796875 C127.47498587 195.45783804 124.54549449 193.03974992 121.40625 189.7578125 C118.77818513 186.01481103 118.34908676 184.46663669 118.71875 179.8828125 C119.0590625 178.3359375 119.0590625 178.3359375 119.40625 176.7578125 C118.74625 176.7578125 118.08625 176.7578125 117.40625 176.7578125 C116.26535584 175.60400256 115.12742164 174.4471449 114.00292969 173.27734375 C110.80856103 170.23732074 107.12389236 167.80038862 103.53125 165.2578125 C102.75394531 164.70222656 101.97664062 164.14664063 101.17578125 163.57421875 C99.64609218 162.4815837 98.11264434 161.39418872 96.57519531 160.3125 C95.16851254 159.30419789 93.78065749 158.268886 92.41699219 157.203125 C89.28804591 154.51474206 89.28804591 154.51474206 85.42236328 154.00585938 C82.84987505 154.96532459 80.6013148 156.35860687 78.28515625 157.8203125 C76.40625 158.7578125 76.40625 158.7578125 71.40625 159.7578125 C71.40625 174.2778125 71.40625 188.7978125 71.40625 203.7578125 C75.86125 206.2328125 75.86125 206.2328125 80.40625 208.7578125 C86.70395649 215.05551899 89.52445788 220.265433 89.84375 229.1953125 C89.6102287 237.34987647 87.50678568 242.01261287 81.65625 247.6328125 C75.8942798 252.32577153 69.80259412 253.40661462 62.40625 252.7578125 C54.75301151 251.33428195 49.62326118 247.41859434 44.40625 241.7578125 C41.0159903 236.67242296 39.82242276 231.31745818 40.80859375 225.3046875 C42.6299981 218.27773107 45.65709172 212.35192707 51.7265625 208.15234375 C57.64084384 204.7578125 57.64084384 204.7578125 60.40625 204.7578125 C60.07625 190.2378125 59.74625 175.7178125 59.40625 160.7578125 C55.77625 158.7778125 52.14625 156.7978125 48.40625 154.7578125 C43.05507723 149.49025181 41.46515329 146.89525351 38.40625 139.7578125 C26.52625 139.7578125 14.64625 139.7578125 2.40625 139.7578125 C1.74625 141.7378125 1.08625 143.7178125 0.40625 145.7578125 C-1.21484375 147.62109375 -1.21484375 147.62109375 -3.03125 149.0703125 C-3.62808594 149.56144531 -4.22492187 150.05257812 -4.83984375 150.55859375 C-9.50856592 153.75079354 -15.18574354 153.27638846 -20.59375 152.7578125 C-26.79937702 150.9999045 -31.04531787 147.04976491 -34.59375 141.7578125 C-36.61982763 135.67957962 -36.08981268 131.20302233 -33.40625 125.5078125 C-29.90012371 119.09464592 -25.588859 115.97293035 -18.59375 113.7578125 C-12.58392663 113.48511545 -8.18802092 114.76279431 -3.59375 118.7578125 C-3.20968994 119.47573975 -2.82562988 120.19366699 -2.42993164 120.93334961 C-0.50654719 124.33896265 1.30990066 127.16647226 5.25170898 128.27838135 C10.75327176 129.0818274 16.29952529 128.91613332 21.84375 128.8203125 C23.54623624 128.82338997 25.24872026 128.83051153 26.95117188 128.84179688 C31.10430174 128.86056245 35.25364316 128.82416024 39.40625 128.7578125 C39.59960938 128.14292969 39.79296875 127.52804688 39.9921875 126.89453125 C40.25257813 126.08628906 40.51296875 125.27804688 40.78125 124.4453125 C41.16410156 123.24455078 41.16410156 123.24455078 41.5546875 122.01953125 C42.40625 119.7578125 42.40625 119.7578125 44.40625 116.7578125 C44.04220732 113.6917221 42.80613965 111.54320394 41.11572266 109.00024414 C40.63586914 108.27233673 40.15601563 107.54442932 39.66162109 106.79446411 C39.13648926 106.01022064 38.61135742 105.22597717 38.0703125 104.41796875 C37.52375 103.59102509 36.9771875 102.76408142 36.4140625 101.91207886 C34.01370496 98.28451569 31.59726732 94.66776979 29.18133545 91.05056763 C27.31707154 88.25882217 25.45471491 85.46582059 23.59375 82.671875 C22.97625885 81.74561813 22.3587677 80.81936127 21.7225647 79.86503601 C17.95635666 74.18586168 14.34338666 68.44024325 10.84375 62.59375 C9.6200774 60.58755709 8.39318611 58.58337189 7.16522217 56.57980347 C6.41561115 55.33406284 5.68248063 54.07823976 4.96710205 52.81253052 C2.80872766 48.99835473 0.75101187 45.62013389 -2.59375 42.7578125 C-6.13806531 42.00846726 -8.99115743 42.03998563 -12.58325195 42.44189453 C-19.06067782 43.12162765 -24.00106705 40.51921474 -28.96875 36.5703125 C-33.89397318 31.89036935 -35.62190354 27.08303224 -36.09375 20.3828125 C-35.81392846 13.33860931 -32.40565719 7.06861641 -27.28125 2.3203125 C-18.65494706 -4.27078044 -9.55535929 -5.16107369 0 0 Z " fill="#529287" transform="translate(575.59375,113.2421875)"/>
<path d="M0 0 C1.13695313 -0.00386719 2.27390625 -0.00773438 3.4453125 -0.01171875 C19.47576823 0.00687807 19.47576823 0.00687807 25 3.125 C26.36517448 3.45965367 27.74183404 3.74990726 29.125 4 C38.88104699 6.08257161 46.91668258 10.04168258 54 17.125 C54.30078125 19.18359375 54.30078125 19.18359375 54.3125 21.5625 C54.32925781 22.34496094 54.34601563 23.12742187 54.36328125 23.93359375 C54 26.125 54 26.125 52.98046875 27.91015625 C49.76169289 29.88459272 46.60666056 29.67859515 43 29.125 C39.89906305 28.09884623 37.006767 26.71912011 34.0625 25.3125 C14.54856058 16.58273061 -7.9020637 15.16626637 -28.1796875 22.56640625 C-48.12455833 30.50871753 -63.02739888 43.95297014 -71.61254883 63.74658203 C-80.49053317 85.61888799 -80.29710667 107.64836307 -72.0625 129.5625 C-63.97702858 148.30324384 -50.67187852 161.81520924 -32 170.125 C-21.47061048 174.06197569 -10.99160653 174.5158116 0.1875 174.625 C1.43394287 174.64361084 2.68038574 174.66222168 3.96459961 174.68139648 C17.73759471 174.58787559 28.29043235 170.42065319 41 165.125 C41.33 147.635 41.66 130.145 42 112.125 C27.41497756 112.36217688 27.41497756 112.36217688 12.83129883 112.66552734 C10.99823095 112.68305657 9.16513968 112.69834459 7.33203125 112.7109375 C6.38598022 112.7416333 5.4399292 112.7723291 4.46520996 112.80395508 C-2.05501595 112.80913329 -2.05501595 112.80913329 -4.7484436 110.85919189 C-7.08747084 108.21448614 -7.99150154 106.54992275 -8.0625 103 C-6.84884955 99.71600465 -5.79550869 98.22163152 -3 96.125 C0.51674402 95.2105015 3.80943312 95.00282681 7.43286133 95.01147461 C8.49358353 95.01155014 9.55430573 95.01162567 10.64717102 95.01170349 C12.34742683 95.01944542 12.34742683 95.01944542 14.08203125 95.02734375 C15.25134689 95.0287587 16.42066254 95.03017365 17.62541199 95.03163147 C21.35446751 95.03722207 25.08346267 95.04977291 28.8125 95.0625 C31.34309809 95.06751621 33.87369712 95.07207891 36.40429688 95.07617188 C42.60288513 95.08718843 48.80143825 95.10391727 55 95.125 C55 95.785 55 96.445 55 97.125 C55.9590625 97.5890625 55.9590625 97.5890625 56.9375 98.0625 C59 99.125 59 99.125 60 100.125 C60.11549974 102.37321532 60.15972356 104.62510681 60.17700195 106.8762207 C60.18357315 107.58195221 60.19014435 108.28768372 60.19691467 109.01480103 C60.21669292 111.36012873 60.22832075 113.70539225 60.23828125 116.05078125 C60.24235678 116.85024862 60.2464323 117.649716 60.25063133 118.47340965 C60.27151226 122.70549641 60.28580467 126.93755056 60.29516602 131.16967773 C60.30622958 135.54475882 60.3406226 139.91933115 60.38033772 144.29423237 C60.40646757 147.65454564 60.41485463 151.01473712 60.41844749 154.37514305 C60.42332359 155.98791118 60.43496668 157.6006735 60.45348549 159.21334267 C60.47779917 161.4711713 60.47692686 163.72767661 60.4699707 165.9855957 C60.47583694 167.27053421 60.48170319 168.55547272 60.48774719 169.87934875 C59.91243565 173.70768574 59.00537911 174.78106531 56 177.125 C43.36167718 185.77227351 28.23368218 191.41066824 13 193.125 C11.88882813 193.25777344 10.77765625 193.39054688 9.6328125 193.52734375 C-15.05982406 195.85043535 -41.00956513 189.74647508 -60.45117188 173.92431641 C-63.03535167 171.72535128 -65.5219943 169.44347743 -68 167.125 C-68.68449219 166.50882813 -69.36898437 165.89265625 -70.07421875 165.2578125 C-76.00473027 159.68712977 -80.50611806 152.86582291 -85 146.125 C-85 145.135 -85 144.145 -85 143.125 C-85.66 143.125 -86.32 143.125 -87 143.125 C-91.76143954 133.22572254 -95.11403356 124.11098381 -96 113.125 C-96.33 113.125 -96.66 113.125 -97 113.125 C-97.88817784 83.61836573 -95.44844829 57.87340947 -76 34.125 C-75.15501953 33.05378906 -75.15501953 33.05378906 -74.29296875 31.9609375 C-67.3317547 23.51618602 -58.53127782 17.36149545 -49 12.125 C-48.09765625 11.62097656 -47.1953125 11.11695313 -46.265625 10.59765625 C-40.58610704 7.58137171 -34.86591136 5.25070112 -28.75 3.3125 C-27.77619385 3.00203735 -27.77619385 3.00203735 -26.78271484 2.68530273 C-17.86684095 -0.00258766 -9.22968553 -0.03139349 0 0 Z M-96 81.125 C-95 84.125 -95 84.125 -95 84.125 Z M43 113.125 C43 130.285 43 147.445 43 165.125 C43.33 165.125 43.66 165.125 44 165.125 C44 147.965 44 130.805 44 113.125 C43.67 113.125 43.34 113.125 43 113.125 Z M-9 176.125 C-9 176.455 -9 176.785 -9 177.125 C-3.39 177.125 2.22 177.125 8 177.125 C8 176.795 8 176.465 8 176.125 C2.39 176.125 -3.22 176.125 -9 176.125 Z " fill="#529287" transform="translate(97,577.875)"/>
<path d="M0 0 C1.37478516 -0.00193359 1.37478516 -0.00193359 2.77734375 -0.00390625 C4.20240234 0.00189453 4.20240234 0.00189453 5.65625 0.0078125 C6.60628906 0.00394531 7.55632812 0.00007812 8.53515625 -0.00390625 C9.45167969 -0.00261719 10.36820312 -0.00132812 11.3125 0 C12.56256836 0.00169189 12.56256836 0.00169189 13.83789062 0.00341797 C29.07039044 0.85358908 43.26507509 11.21440731 53.15625 22.1328125 C55.81718074 25.64887179 58.03528672 29.2721827 60.15625 33.1328125 C60.55328125 33.761875 60.9503125 34.3909375 61.359375 35.0390625 C66.2243757 43.31682489 69.25672399 58.67240995 67.15625 68.1328125 C65.74456787 70.23834229 65.74456787 70.23834229 63.15625 72.1328125 C59.86030027 72.74893591 56.59225796 72.69644754 53.24707031 72.67871094 C52.24186844 72.68904861 51.23666656 72.69938629 50.20100403 72.71003723 C46.87863216 72.73953375 43.55686769 72.74096589 40.234375 72.7421875 C37.93079461 72.75716447 35.62722497 72.77389058 33.32366943 72.79229736 C27.26067622 72.83603704 21.19782787 72.85598478 15.13470459 72.87103271 C8.9477886 72.89057983 2.7610296 72.93255256 -3.42578125 72.97265625 C-15.56505582 73.04803018 -27.70429538 73.09827826 -39.84375 73.1328125 C-42.78803111 81.96565583 -38.32693011 92.82955184 -34.60546875 100.8671875 C-28.45873544 112.26113217 -20.25956324 118.63862439 -8.3984375 123.37109375 C-1.72903481 125.35967712 5.07044683 125.34519394 11.96875 125.3828125 C12.90267578 125.4034375 13.83660156 125.4240625 14.79882812 125.4453125 C23.08909291 125.49133756 31.02934368 124.1889275 37.90625 119.2578125 C39.00259766 118.47664062 39.00259766 118.47664062 40.12109375 117.6796875 C43.69870232 114.96043031 47.14728615 112.30451246 50.09375 108.8828125 C53.10066206 106.33149318 55.25099748 106.0642993 59.15625 106.1328125 C62.47125554 108.46036958 63.8601237 110.02233888 64.90625 113.9453125 C62.62425802 123.6437784 51.04572754 130.63809599 43.21875 135.8828125 C27.16700702 145.34187533 8.60667631 145.55110457 -9.015625 141.125 C-27.53219409 136.06890328 -41.78504667 123.89937908 -51.2578125 107.33203125 C-59.70814273 90.28567544 -61.64545651 65.25224728 -55.71875 47.1328125 C-51.92015662 37.04946772 -46.86067553 28.30107393 -39.84375 20.1328125 C-39.07998047 19.22595703 -39.07998047 19.22595703 -38.30078125 18.30078125 C-29.06607064 8.19960396 -13.92185616 0.01884242 0 0 Z M-28.84375 32.1328125 C-34.2440812 39.58374116 -39.84375 48.83554025 -39.84375 58.1328125 C-10.14375 58.1328125 19.55625 58.1328125 50.15625 58.1328125 C49.82625 56.4828125 49.49625 54.8328125 49.15625 53.1328125 C49.15625 51.1328125 49.15625 49.1328125 49.15625 47.1328125 C48.66125 45.6478125 48.66125 45.6478125 48.15625 44.1328125 C47.49625 44.1328125 46.83625 44.1328125 46.15625 44.1328125 C45.98222656 43.02873047 45.98222656 43.02873047 45.8046875 41.90234375 C43.90436476 33.78590507 37.87914565 28.47718079 31.23828125 23.92578125 C10.88899556 12.08760364 -12.50487928 14.37467546 -28.84375 32.1328125 Z M-56.84375 56.1328125 C-55.84375 59.1328125 -55.84375 59.1328125 -55.84375 59.1328125 Z M4.15625 127.1328125 C4.15625 127.4628125 4.15625 127.7928125 4.15625 128.1328125 C9.43625 128.1328125 14.71625 128.1328125 20.15625 128.1328125 C20.15625 127.8028125 20.15625 127.4728125 20.15625 127.1328125 C14.87625 127.1328125 9.59625 127.1328125 4.15625 127.1328125 Z " fill="#529287" transform="translate(487.84375,627.8671875)"/>
<path d="M0 0 C0.96413818 0.00902344 1.92827637 0.01804687 2.92163086 0.02734375 C18.57479647 0.40601756 33.27803587 7.00460199 44.1875 18.4375 C46.67790222 21.33394606 48.96176546 24.33431242 51.1875 27.4375 C51.64125 28.04078125 52.095 28.6440625 52.5625 29.265625 C59.27713721 38.91791598 62.18568484 51.52842498 62.5 63.125 C62.55607422 64.49205078 62.55607422 64.49205078 62.61328125 65.88671875 C62.01932603 69.44500091 61.12872425 70.32017976 58.1875 72.4375 C54.83008465 73.05319255 51.5003966 73.00110667 48.09472656 72.98339844 C47.07001755 72.99373611 46.04530853 73.00407379 44.98954773 73.01472473 C41.60224777 73.0442244 38.21554349 73.04565346 34.828125 73.046875 C32.47970434 73.06185175 30.13129423 73.07857782 27.78289795 73.09698486 C21.60153732 73.14072696 15.42031878 73.16067282 9.23883057 73.17572021 C2.93127008 73.19526645 -3.3761364 73.23723928 -9.68359375 73.27734375 C-22.05984841 73.35272032 -34.43606872 73.4029668 -46.8125 73.4375 C-46.36784504 76.13677274 -45.91483419 78.83420259 -45.45703125 81.53125 C-45.33332153 82.28760742 -45.20961182 83.04396484 -45.08215332 83.82324219 C-42.72224238 97.58876994 -36.33997595 110.21237926 -24.8125 118.4375 C-14.95912218 124.52721055 -5.10098447 125.78248045 6.3125 125.6875 C7.24964844 125.69523438 8.18679688 125.70296875 9.15234375 125.7109375 C22.54890805 125.67346459 31.15542831 121.59039819 40.86328125 112.56640625 C44.26084508 109.45435199 47.17224858 106.82135741 51.8125 105.9375 C55.17107502 106.64456843 56.26415158 107.58809494 58.1875 110.4375 C58.75361781 115.41933671 58.91275203 117.39209167 56.01953125 121.5625 C55.03739798 122.54580069 54.02913819 123.50350825 53 124.4375 C52.19284546 125.20223633 52.19284546 125.20223633 51.36938477 125.98242188 C39.2404393 137.10018377 23.59672932 144.68036945 6.89892578 144.39892578 C-13.53101531 143.45313276 -31.34306299 137.55059524 -45.8125 122.4375 C-54.84087936 111.73665036 -64.00574886 98.15423593 -62.8125 83.4375 C-63.1425 83.4375 -63.4725 83.4375 -63.8125 83.4375 C-64.69239588 58.65376615 -60.7561023 37.80343516 -43.98046875 18.66015625 C-32.37887371 6.76590836 -16.55523728 -0.18668579 0 0 Z M-34.8125 33.4375 C-40.14904662 40.77306449 -44.8125 49.14840396 -44.8125 58.4375 C-15.1125 58.4375 14.5875 58.4375 45.1875 58.4375 C41.05573736 41.91044946 38.68316693 32.92998007 24.79296875 23.92578125 C4.057889 12.08160526 -18.6652614 15.39960372 -34.8125 33.4375 Z M44.1875 53.4375 C45.1875 55.4375 45.1875 55.4375 45.1875 55.4375 Z M-62.8125 62.4375 C-61.8125 64.4375 -61.8125 64.4375 -61.8125 64.4375 Z M-1.8125 127.4375 C-1.8125 127.7675 -1.8125 128.0975 -1.8125 128.4375 C3.4675 128.4375 8.7475 128.4375 14.1875 128.4375 C14.1875 128.1075 14.1875 127.7775 14.1875 127.4375 C8.9075 127.4375 3.6275 127.4375 -1.8125 127.4375 Z " fill="#529287" transform="translate(344.8125,627.5625)"/>
<path d="M0 0 C2.64971542 1.80662415 4.55620529 3.11241058 6 6 C6.10445379 7.60885459 6.14653578 9.22193747 6.15821838 10.83413696 C6.1680072 11.85499893 6.17779602 12.8758609 6.18788147 13.92765808 C6.19651466 15.6140313 6.19651466 15.6140313 6.20532227 17.33447266 C6.21522186 18.51494675 6.22512146 19.69542084 6.23532104 20.91166687 C6.26154157 24.15316782 6.28339011 27.39466343 6.30332303 30.63620806 C6.32516848 34.02217815 6.3525642 37.40810314 6.37937927 40.79403687 C6.42932569 47.20777728 6.47425727 53.6215427 6.51740164 60.03533208 C6.56675738 67.33635754 6.62168166 74.63733774 6.67708123 81.93831944 C6.79093118 96.95883747 6.89776364 111.9793981 7 127 C8.27167386 126.05742609 9.5417988 125.11276224 10.8112793 124.16723633 C11.51874802 123.64140457 12.22621674 123.11557281 12.9551239 122.57380676 C15.74367664 120.42764096 18.25273116 118.10406499 20.8125 115.6875 C25.48034136 111.32812917 30.3079322 107.25215213 35.28515625 103.24609375 C38.10673495 100.9116941 40.80590712 98.48009402 43.5 96 C47.8663581 91.98517073 52.36536407 88.20815045 56.98046875 84.484375 C60.5665658 81.53384754 64.06444865 78.49135435 67.5625 75.4375 C71.9009397 71.66373047 76.24411371 67.90039258 80.6875 64.25 C81.43386719 63.63640625 82.18023438 63.0228125 82.94921875 62.390625 C85.08334335 60.94348527 86.42771896 60.18921352 89 60 C90.921875 60.93359375 90.921875 60.93359375 92.75 62.4375 C93.36359375 62.91058594 93.9771875 63.38367188 94.609375 63.87109375 C96.34849186 66.53350579 96.61234977 68.81711916 96.47216797 71.97338867 C95.62063578 75.62828459 92.97084599 77.67006291 90.1875 79.9375 C89.59437012 80.45127197 89.00124023 80.96504395 88.39013672 81.49438477 C86.61337194 83.02211705 84.81263907 84.51511879 83 86 C82.08089844 86.763125 81.16179687 87.52625 80.21484375 88.3125 C78.46164131 89.75102508 76.70096595 91.18048239 74.93359375 92.6015625 C70.80967392 95.97318271 66.80100251 99.4715238 62.78466797 102.9699707 C57.7106281 107.38952546 52.60629713 111.77217057 47.47924805 116.13012695 C44.89338433 118.33669497 42.3467439 120.53757154 40 123 C44.64663919 128.23668862 49.32378361 133.38463553 54.3203125 138.2890625 C56.75191912 140.76590831 58.98526307 143.40253749 61.25 146.03125 C62.93798286 147.93023071 64.68769734 149.72005988 66.5 151.5 C69.59356643 154.53832417 72.42105507 157.7476532 75.25 161.03125 C76.93798286 162.93023071 78.68769734 164.72005988 80.5 166.5 C83.5857447 169.53064212 86.4077646 172.7298439 89.2265625 176.0078125 C91.57478086 178.64567894 94.07561223 181.10428982 96.6171875 183.5546875 C98.84362856 185.88175867 99.00750788 187.08108507 99.3125 190.375 C99 194 99 194 97.5 196.4375 C94.02147192 198.61158005 90.93335478 198.88693294 87 198 C84.05337969 196.05446082 81.80212655 193.60516985 79.4375 191 C78.77983643 190.3088208 78.12217285 189.6176416 77.44458008 188.90551758 C73.7469253 184.99417345 70.13935273 181.0006211 66.66796875 176.88671875 C63.74495391 173.5803577 60.54838376 170.54176676 57.41015625 167.44140625 C54.73145468 164.72797273 52.25391882 161.89222977 49.77734375 158.99609375 C47.0551104 155.9388163 44.11648524 153.10809769 41.203125 150.234375 C38.53150907 147.5248638 36.05098396 144.68354774 33.57421875 141.796875 C31.48662489 139.41401353 29.27363401 137.20473601 27 135 C24.16210323 136.3069975 21.94774497 137.74515859 19.6171875 139.8203125 C19.00746094 140.35527344 18.39773438 140.89023437 17.76953125 141.44140625 C16.49826591 142.57112864 15.22743797 143.7013434 13.95703125 144.83203125 C13.04630859 145.63060547 13.04630859 145.63060547 12.1171875 146.4453125 C11.56659668 146.93531738 11.01600586 147.42532227 10.44873047 147.93017578 C9 149 9 149 7 149 C6.99635437 149.55488098 6.99270874 150.10976196 6.98895264 150.68145752 C6.9471416 156.45684694 6.87780659 162.2314406 6.79248047 168.00634766 C6.76425501 170.16154013 6.74304835 172.31683643 6.72900391 174.47216797 C6.70759653 177.5705283 6.6609568 180.66763827 6.609375 183.765625 C6.60753204 185.21113739 6.60753204 185.21113739 6.60565186 186.68585205 C6.46013436 193.33224098 6.46013436 193.33224098 4.20800781 196.60058594 C1.55858384 198.27976531 -0.79267401 198.5658241 -3.90234375 198.7265625 C-7.28860436 197.55366776 -9.19855306 194.97894424 -11 192 C-11.47800381 189.20359003 -11.66693392 187.02634697 -11.61473083 184.24411011 C-11.62041409 183.48226508 -11.62609735 182.72042006 -11.63195282 181.93548882 C-11.64483243 179.39246536 -11.62208843 176.85104111 -11.59936523 174.30810547 C-11.60122974 172.48121813 -11.60526735 170.6543319 -11.61131287 168.82745361 C-11.62128486 163.87293441 -11.60012264 158.91898759 -11.57283282 153.96455145 C-11.54899908 148.78009999 -11.55194775 143.59565981 -11.55152893 138.41116333 C-11.54690165 129.7071158 -11.52326296 121.00328709 -11.48706055 112.29931641 C-11.44530134 102.23247654 -11.42774411 92.16583363 -11.4244408 82.09891212 C-11.42084294 71.38396797 -11.40197245 60.6690948 -11.37732053 49.95418024 C-11.37108889 46.86477664 -11.36745451 43.77537843 -11.36428642 40.68597031 C-11.35839063 35.83502652 -11.34209082 30.98422379 -11.31768227 26.13333893 C-11.31023512 24.35153671 -11.30616987 22.56971673 -11.30570221 20.78789902 C-11.30444656 18.35909423 -11.29091769 15.93066271 -11.27415466 13.50192261 C-11.27656975 12.79395031 -11.27898483 12.08597801 -11.2814731 11.356552 C-11.24244504 7.75414334 -11.0576111 5.02078268 -9 2 C-6.02924896 -0.04879382 -3.56155512 -0.52120319 0 0 Z " fill="#529287" transform="translate(1180,570)"/>
<path d="M0 0 C1.34674805 -0.00483398 1.34674805 -0.00483398 2.72070312 -0.00976562 C15.04874254 0.08958121 24.00557904 4.41052103 32.91796875 12.84375 C48.34621966 28.75020118 47.47129675 49.5747758 47.515625 70.3671875 C47.51986607 71.71624868 47.51986607 71.71624868 47.52419281 73.09256363 C47.53908391 77.83807917 47.54838096 82.58356501 47.55273438 87.32910156 C47.55825118 92.22159057 47.58237476 97.11380581 47.61070633 102.00620842 C47.62931929 105.78259086 47.63453726 109.55890653 47.63607025 113.33533096 C47.63909269 115.13983812 47.6471074 116.94434421 47.66025543 118.748806 C47.67731238 121.26618405 47.67543848 123.78288057 47.66894531 126.30029297 C47.6781601 127.04114639 47.68737488 127.78199982 47.6968689 128.54530334 C47.65769888 133.3937795 46.8019788 136.8230212 43.3125 140.3125 C41.421875 140.62109375 41.421875 140.62109375 39.0625 140.75 C38.29421875 140.81058594 37.5259375 140.87117187 36.734375 140.93359375 C33.68539524 140.15167797 32.30917865 138.60108712 30.37934875 136.17566299 C28.40905754 132.73471256 28.6545154 129.25193711 28.73242188 125.37646484 C28.72874352 124.05807114 28.72874352 124.05807114 28.72499084 122.71304321 C28.72282398 120.81096885 28.7320609 118.90885437 28.7514801 117.0068779 C28.78161731 113.98662719 28.78049747 110.96778974 28.7713623 107.94741821 C28.75510093 100.44291598 28.79231929 92.93885074 28.82794189 85.43444824 C28.85600729 79.09549084 28.86347705 72.75713635 28.84437561 66.41814041 C28.84376274 63.45994532 28.87283069 60.50302789 28.90319824 57.54501343 C28.93094281 46.70279033 28.51164589 37.12630699 21.64660645 28.12924194 C20.3125 26.3125 20.3125 26.3125 20.3125 24.3125 C19.6525 24.065 18.9925 23.8175 18.3125 23.5625 C15.20396427 22.26727678 12.25729466 20.77858036 9.27734375 19.21484375 C1.73186273 15.74962284 -8.44140777 16.22038876 -16.34765625 18.25390625 C-22.56019418 20.57180052 -28.3283711 23.40306894 -33.6875 27.3125 C-34.57501953 27.90224609 -34.57501953 27.90224609 -35.48046875 28.50390625 C-42.21183205 33.481846 -47.0027393 42.15818364 -48.6875 50.3125 C-48.79029804 53.08220616 -48.84152992 55.82777001 -48.84521484 58.59765625 C-48.85029556 59.43062225 -48.85537628 60.26358826 -48.86061096 61.12179565 C-48.87129839 62.92785598 -48.87992493 64.73392942 -48.88673019 66.54000854 C-48.89853214 69.39791766 -48.91798672 72.25567654 -48.93984985 75.11352539 C-49.00143439 83.23806784 -49.05556787 91.3625931 -49.08886719 99.48730469 C-49.10979063 104.45871233 -49.14507034 109.42984297 -49.18962479 114.40109253 C-49.20379831 116.29569239 -49.21251027 118.19034122 -49.21567917 120.08499146 C-49.22057799 122.73273817 -49.24370738 125.37974662 -49.27099609 128.02734375 C-49.26798996 128.81084198 -49.26498383 129.59434021 -49.2618866 130.40158081 C-49.31163955 133.64579851 -49.47729605 135.93861615 -51.0831604 138.79492188 C-53.1413628 140.74181824 -54.25396138 140.87979273 -57.0625 140.875 C-58.18785156 140.90787109 -58.18785156 140.90787109 -59.3359375 140.94140625 C-62.82239103 140.00898263 -64.88585101 138.37695623 -66.6875 135.3125 C-67.44318716 131.33144934 -67.35994836 127.39141504 -67.31860352 123.34960938 C-67.32575882 122.13771439 -67.33291412 120.9258194 -67.34028625 119.67720032 C-67.35428433 116.36058736 -67.34587986 113.04553684 -67.32619596 109.72905159 C-67.30978683 106.25470193 -67.31862548 102.78040239 -67.32371521 99.30603027 C-67.32823369 93.47195598 -67.31238201 87.63820255 -67.28442383 81.80419922 C-67.25237266 75.06425344 -67.25238823 68.32488629 -67.2696386 61.58489943 C-67.28551581 55.09484081 -67.27876256 48.60499385 -67.26170158 42.11494446 C-67.25483831 39.35584359 -67.25585597 36.59691276 -67.26324654 33.83781433 C-67.27234722 29.98344962 -67.24834805 26.12967688 -67.22094727 22.27539062 C-67.22747314 21.13237991 -67.23399902 19.9893692 -67.24072266 18.8117218 C-67.14757098 11.11463593 -67.14757098 11.11463593 -64.86509705 7.13513184 C-61.74486395 4.52352093 -59.73763332 4.17284023 -55.6875 4.3125 C-51.36513747 6.39363752 -51.36513747 6.39363752 -49.6875 9.3125 C-48.89019147 13.65048788 -48.7003987 17.90759302 -48.6875 22.3125 C-47.718125 21.466875 -46.74875 20.62125 -45.75 19.75 C-44.3984001 18.60114009 -43.04404592 17.45551555 -41.6875 16.3125 C-41.01203125 15.73628906 -40.3365625 15.16007813 -39.640625 14.56640625 C-28.03024626 5.05352294 -15.01402862 -0.27298234 0 0 Z " fill="#529287" transform="translate(1079.6875,627.6875)"/>
<path d="M0 0 C12.49564386 10.06436474 18.97190602 19.97552428 21 36 C21.53204936 43.3329481 21.42351888 50.69548551 21.3984375 58.04296875 C21.4004622 60.14569703 21.40337693 62.24842462 21.40713501 64.35115051 C21.41152901 68.72741475 21.4052151 73.1034938 21.39111328 77.47973633 C21.3739061 83.09316836 21.38395346 88.70617365 21.40183067 94.31959057 C21.41264859 98.64749905 21.40923335 102.97530545 21.4014473 107.30321693 C21.39944579 109.37451541 21.40190281 111.44582315 21.40888596 113.51711082 C21.41648028 116.39862257 21.40492992 119.27942965 21.38818359 122.16088867 C21.39425629 123.01642838 21.40032898 123.87196808 21.40658569 124.75343323 C21.34367536 130.57810631 21.34367536 130.57810631 19.60656166 132.71057606 C17.53998562 134.36920684 16.25686241 134.49513151 13.625 134.5625 C12.49964844 134.62630859 12.49964844 134.62630859 11.3515625 134.69140625 C7.73349215 133.62762145 5.81927175 131.17027206 4 128 C3.30265405 124.96930677 3.32849355 122.03676376 3.37231445 118.93701172 C3.36504333 118.04523224 3.35777222 117.15345276 3.35028076 116.23464966 C3.33174086 113.29925431 3.34773334 110.36508266 3.36328125 107.4296875 C3.35523976 105.38517164 3.34472087 103.34066415 3.33183289 101.2961731 C3.30330189 95.92182673 3.30270668 90.5478662 3.30969238 85.17346191 C3.31702029 76.56444018 3.2857112 67.95554291 3.24724388 59.34662247 C3.23838443 56.3397058 3.24369848 53.33305755 3.25080872 50.32614136 C3.24742473 48.48549323 3.24367561 46.64484573 3.23950195 44.80419922 C3.24519699 43.96773865 3.25089203 43.13127808 3.25675964 42.26947021 C3.23664526 38.33142402 3.14400599 35.36004085 1 32 C0.71125 31.05125 0.4225 30.1025 0.125 29.125 C-1.12215882 25.66066994 -2.93380126 23.03042482 -5 20 C-5 19.34 -5 18.68 -5 18 C-5.66 17.7525 -6.32 17.505 -7 17.25 C-10.10853573 15.95477678 -13.05520534 14.46608036 -16.03515625 12.90234375 C-23.58063727 9.43712284 -33.75390777 9.90788876 -41.66015625 11.94140625 C-47.85972683 14.25446241 -53.66778734 17.06852312 -59 21 C-59.61488281 21.45117188 -60.22976563 21.90234375 -60.86328125 22.3671875 C-68.49328283 28.41237077 -72.68936131 36.41446381 -74 46 C-74.09426894 48.82032281 -74.14378568 51.61638988 -74.1418457 54.4362793 C-74.14532013 55.26139008 -74.14879456 56.08650085 -74.15237427 56.93661499 C-74.15969783 58.71918255 -74.16506122 60.50175903 -74.16866493 62.284338 C-74.17585806 65.1043315 -74.19154242 67.9241538 -74.21000671 70.74409485 C-74.26236745 78.75849177 -74.31051264 86.77278886 -74.32592773 94.78735352 C-74.33598698 99.69628325 -74.36524739 104.60477275 -74.40724754 109.51352882 C-74.41958035 111.38383474 -74.42467465 113.25420271 -74.42244911 115.12454796 C-74.42010615 117.73414909 -74.44218047 120.34247509 -74.4699707 122.9519043 C-74.46336929 123.72650497 -74.45676788 124.50110565 -74.44996643 125.29917908 C-74.54111565 130.49468454 -74.54111565 130.49468454 -76.78703308 132.96784973 C-80.12785002 134.52604072 -83.5014042 135.15316845 -87 134 C-90.05313224 131.30055813 -91.72110067 129.53234542 -92.45872307 125.47965622 C-92.63033405 122.30964617 -92.6409786 119.1739926 -92.59936523 115.99951172 C-92.60330795 114.79561798 -92.60725067 113.59172424 -92.61131287 112.35134888 C-92.61686328 109.06188907 -92.6001676 105.77347783 -92.57283282 102.48415518 C-92.54894409 99.03739743 -92.55194733 95.59065513 -92.55152893 92.14382935 C-92.54690633 86.35859571 -92.52329904 80.57369201 -92.48706055 74.78857422 C-92.44529064 68.10267249 -92.42774311 61.41706746 -92.4244408 54.73104274 C-92.42084009 47.60609561 -92.401968 40.48125498 -92.37732053 33.35635233 C-92.37109624 31.30550881 -92.36745727 29.2546734 -92.36428642 27.20382309 C-92.35526333 23.38297975 -92.33288967 19.56245625 -92.30639648 15.74169922 C-92.30573181 14.60601501 -92.30506714 13.47033081 -92.30438232 12.30023193 C-92.2944072 11.26004913 -92.28443207 10.21986633 -92.27415466 9.14816284 C-92.26950416 8.24522429 -92.26485365 7.34228573 -92.26006222 6.4119854 C-91.97789248 3.79496056 -91.44424259 2.19416213 -90 0 C-86.9508367 -1.42294287 -84.74079014 -2.03527572 -81.375 -1.875 C-78.30905495 -0.7454413 -77.03400657 0.430288 -75 3 C-74.390625 6.453125 -74.390625 6.453125 -74.25 10.25 C-74.19328125 11.51328125 -74.1365625 12.7765625 -74.078125 14.078125 C-74.05234375 15.04234375 -74.0265625 16.0065625 -74 17 C-73.42894531 16.3709375 -72.85789062 15.741875 -72.26953125 15.09375 C-54.47825552 -3.68750133 -23.8394489 -15.26748248 0 0 Z M4 41 C5 43 5 43 5 43 Z " fill="#529287" transform="translate(679,634)"/>
<path d="M0 0 C3.27583747 2.56217786 4.81516598 4.06474828 5.63085651 8.19210529 C5.63362189 9.40426307 5.63638727 10.61642084 5.63923645 11.86531067 C5.64759213 12.54336893 5.6559478 13.2214272 5.66455668 13.92003268 C5.68645174 16.18525287 5.6728922 18.44884627 5.65942383 20.71411133 C5.66787823 22.34045643 5.67852289 23.9667914 5.69119263 25.59310913 C5.71935081 30.00397049 5.71686533 34.41434575 5.70889878 38.82526994 C5.70577499 43.43645806 5.73080432 48.04749102 5.75285339 52.65861511 C5.79031649 61.38851232 5.80244273 70.11825374 5.8054778 78.84822339 C5.81016617 88.78776586 5.84308238 98.72715204 5.87837565 108.66662562 C5.95033744 129.11106596 5.98683129 149.55544281 6 170 C7.06187027 169.98889694 8.12374054 169.97779388 9.2177887 169.96635437 C19.2372073 169.86488528 29.25652131 169.78998991 39.27633762 169.74093914 C44.42736327 169.71487348 49.5779733 169.67953058 54.72875977 169.62280273 C59.70195016 169.56837517 64.67474141 169.53855666 69.64820671 169.52561378 C71.54321511 169.5163932 73.43820229 169.49838724 75.33304024 169.47134972 C77.99276624 169.43491602 80.65085461 169.43006054 83.31079102 169.43237305 C84.47928589 169.40540848 84.47928589 169.40540848 85.67138672 169.37789917 C91.57350373 169.43322506 94.54248438 171.12779392 99 175 C99.7890625 177.3515625 99.7890625 177.3515625 99.625 179.625 C99.59664062 180.38039063 99.56828125 181.13578125 99.5390625 181.9140625 C98.87350631 184.48947558 98.06118077 185.34167979 96 187 C94.02061653 187.38590336 94.02061653 187.38590336 91.72463989 187.40113831 C90.85266968 187.41393326 89.98069946 187.42672821 89.08230591 187.43991089 C87.65155228 187.43787155 87.65155228 187.43787155 86.19189453 187.43579102 C85.18511658 187.44586685 84.17833862 187.45594269 83.14105225 187.46632385 C79.80486012 187.49487709 76.46911929 187.50068425 73.1328125 187.50390625 C70.81737072 187.51354248 68.5019308 187.52363458 66.18649292 187.53416443 C61.3292009 187.55214445 56.47206906 187.55768355 51.61474609 187.5559082 C45.38773058 187.55560332 39.16174119 187.59655661 32.93496895 187.64822483 C28.15143102 187.68156705 23.36814161 187.68766642 18.58449936 187.68607903 C16.28874042 187.68962223 13.99297526 187.70290915 11.69733047 187.72607613 C8.48645268 187.75544428 5.27780762 187.74685992 2.06689453 187.72875977 C1.11710724 187.74561829 0.16731995 187.76247681 -0.81124878 187.77984619 C-1.68885864 187.76726273 -2.56646851 187.75467926 -3.47067261 187.74171448 C-4.22909895 187.74334878 -4.98752529 187.74498308 -5.76893425 187.74666691 C-9.28886993 186.56865614 -11.22790929 184.13596986 -13 181 C-13.62082577 177.53984642 -13.62082577 177.53984642 -13.61473083 173.66171265 C-13.62041409 172.9447867 -13.62609735 172.22786075 -13.63195282 171.48920977 C-13.64482373 169.09816437 -13.62209696 166.70882285 -13.59936523 164.31787109 C-13.60122991 162.59935655 -13.60526789 160.88084319 -13.61131287 159.16233826 C-13.62128162 154.50325019 -13.60012819 149.84477116 -13.57283282 145.18577147 C-13.54899219 140.30962015 -13.5519477 135.4334807 -13.55152893 130.55728149 C-13.54690223 122.37109065 -13.52326748 114.18513254 -13.48706055 105.99902344 C-13.44530001 96.53202845 -13.42774398 87.06524291 -13.4244408 77.5981611 C-13.42084259 67.52015277 -13.40197189 57.44221989 -13.37732053 47.36424303 C-13.37108981 44.45910009 -13.36745485 41.5539629 -13.36428642 38.64881516 C-13.35838939 34.08678027 -13.34208616 29.5248953 -13.31768227 24.96292305 C-13.31023699 23.28755031 -13.30616999 21.6121587 -13.30570221 19.93676949 C-13.30444596 17.6524647 -13.29091245 15.36855615 -13.27415466 13.08432007 C-13.26950416 11.80528997 -13.26485365 10.52625988 -13.26006222 9.2084713 C-13.01457476 6.17981347 -12.66428987 4.50079897 -11 2 C-7.56199608 -0.54666957 -4.14893725 -0.50951861 0 0 Z " fill="#529287" transform="translate(831,581)"/>
<path d="M0 0 C4.57817378 3.59953049 4.57817378 3.59953049 5.0390625 6.15625 C5.10599068 8.55385365 5.08294436 10.73315983 4.66796875 13.09765625 C2.60546875 15.22265625 2.60546875 15.22265625 -0.33203125 16.09765625 C-3.51953125 15.84765625 -3.51953125 15.84765625 -7.33203125 15.09765625 C-17.0281359 13.40002177 -24.17785552 14.7791615 -32.45703125 20.22265625 C-44.9462621 29.62378307 -53.64464505 44.19926965 -55.85391235 59.77763367 C-56.32941172 63.68697604 -56.46901019 67.53499561 -56.48974609 71.47583008 C-56.49482681 72.16468292 -56.49990753 72.85353577 -56.50514221 73.56326294 C-56.51575233 75.04240001 -56.52440826 76.52155219 -56.53126144 78.00071144 C-56.54315836 80.34200273 -56.56263109 82.68311836 -56.5843811 85.02433777 C-56.64568263 91.67493905 -56.70020214 98.32551211 -56.73339844 104.97631836 C-56.75430887 109.05759278 -56.78956181 113.13852884 -56.83415604 117.21961021 C-56.8483225 118.77172567 -56.85703994 120.32390078 -56.86021042 121.87607765 C-56.8651043 124.03990018 -56.88821393 126.20281607 -56.91552734 128.36645508 C-56.9236142 129.59697098 -56.93170105 130.82748688 -56.94003296 132.09529114 C-57.33203125 135.09765625 -57.33203125 135.09765625 -58.72769165 136.98686218 C-60.80219389 138.42318201 -62.19291398 138.59580171 -64.70703125 138.66015625 C-65.83238281 138.72396484 -65.83238281 138.72396484 -66.98046875 138.7890625 C-69.88740681 137.93436476 -71.39006901 136.48736538 -73.25950432 134.13781738 C-75.51952122 129.83881239 -75.01269801 124.96475048 -74.96313477 120.22070312 C-74.97029007 119.02977554 -74.97744537 117.83884796 -74.9848175 116.61183167 C-74.99879871 113.35739151 -74.990427 110.10398598 -74.97072721 106.84960365 C-74.95429634 103.43712086 -74.96315974 100.02468837 -74.96824646 96.61218262 C-74.97276252 90.88243526 -74.95692832 85.15301488 -74.92895508 79.42333984 C-74.896905 72.80778986 -74.89692026 66.19282945 -74.91416985 59.57723761 C-74.93005756 53.20197534 -74.92328708 46.82692832 -74.90623283 40.45167542 C-74.89937693 37.74363951 -74.90037961 35.03577691 -74.90777779 32.32774353 C-74.91322812 28.54299406 -74.89285784 24.75924489 -74.86547852 20.97460938 C-74.87200439 19.85546646 -74.87853027 18.73632355 -74.88525391 17.58326721 C-74.81060285 11.51402093 -74.57539596 7.61838737 -70.33203125 3.09765625 C-66.30924372 1.85424919 -64.30515127 1.6534058 -60.45703125 3.41015625 C-58.33203125 5.09765625 -58.33203125 5.09765625 -57.33203125 7.09765625 C-57.17980152 8.76331374 -57.0828591 10.43422121 -57.015625 12.10546875 C-56.97373047 13.09160156 -56.93183594 14.07773437 -56.88867188 15.09375 C-56.84935547 16.12628906 -56.81003906 17.15882813 -56.76953125 18.22265625 C-56.72634766 19.26292969 -56.68316406 20.30320312 -56.63867188 21.375 C-56.53240245 23.94908153 -56.43036542 26.52326133 -56.33203125 29.09765625 C-55.77515625 28.25203125 -55.21828125 27.40640625 -54.64453125 26.53515625 C-46.08035839 13.71444753 -36.28298568 3.04688282 -20.88671875 -1.46484375 C-13.9949427 -2.64508674 -6.19819993 -3.53871438 0 0 Z " fill="#529287" transform="translate(267.33203125,629.90234375)"/>
<path d="M0 0 C2.12492466 1.24754333 2.12492466 1.24754333 4 3 C4.50057125 5.42225647 4.50057125 5.42225647 4.50120544 8.35180664 C4.51103958 9.46226349 4.52087372 10.57272034 4.53100586 11.71682739 C4.52133789 12.93562592 4.51166992 14.15442444 4.50170898 15.41015625 C4.50711197 16.69324677 4.51251495 17.97633728 4.51808167 19.29830933 C4.5320583 22.81905348 4.52085156 26.33931016 4.50437045 29.86002731 C4.49053322 33.54218695 4.49697851 37.2243179 4.50050354 40.90649414 C4.50320673 47.09041208 4.4897209 53.27413603 4.46655273 59.45800781 C4.43994217 66.61026478 4.43819541 73.76219738 4.4499411 80.91448689 C4.46071558 87.79108651 4.45453445 94.66756865 4.44038582 101.54415894 C4.4346231 104.47234876 4.4347109 107.4004527 4.43945122 110.3286438 C4.44510403 114.41589054 4.42591512 118.50265168 4.40405273 122.58984375 C4.40855438 123.80864227 4.41305603 125.0274408 4.41769409 126.28317261 C4.40778946 127.39362946 4.39788483 128.5040863 4.38768005 129.64819336 C4.38525016 130.61494492 4.38282026 131.58169647 4.38031673 132.57774353 C3.93456882 135.4167345 3.27754652 136.30261651 1 138 C-1.0859375 138.50390625 -1.0859375 138.50390625 -3.375 138.5625 C-4.50035156 138.62630859 -4.50035156 138.62630859 -5.6484375 138.69140625 C-8.54900354 137.83858202 -10.06137484 136.40968887 -11.92747307 134.06353951 C-14.22122086 129.6503737 -13.68015087 124.59814977 -13.63110352 119.73999023 C-13.63825882 118.50844208 -13.64541412 117.27689392 -13.65278625 116.00802612 C-13.6667704 112.64189412 -13.65839496 109.27730498 -13.63869596 105.91129947 C-13.62227168 102.38357084 -13.63112741 98.85589107 -13.63621521 95.32814026 C-13.6407314 89.40588726 -13.62489471 83.48395061 -13.59692383 77.56176758 C-13.56485893 70.72012498 -13.56489472 63.87905233 -13.5821386 57.03736919 C-13.59801427 50.44746359 -13.59126451 43.85776646 -13.57420158 37.26786995 C-13.56733871 34.46690364 -13.56835551 31.66610482 -13.57574654 28.86514091 C-13.5848456 24.95341208 -13.56085109 21.04226675 -13.53344727 17.13061523 C-13.53997314 15.97047409 -13.54649902 14.81033295 -13.55322266 13.61503601 C-13.45954698 5.76140372 -13.45954698 5.76140372 -11.0877533 1.8316803 C-6.9128811 -1.83112371 -5.11011708 -2.68281146 0 0 Z " fill="#529287" transform="translate(968,630)"/>
<path d="M0 0 C5.09119105 2.54559552 9.56944627 6.58867958 11.8125 11.9375 C12.3756732 18.13240519 12.03803752 22.44772452 9 28 C3.54583545 33.05507934 -0.35231387 33.46671328 -7.65625 33.41015625 C-12.71662809 32.7894323 -15.65127915 30.75228464 -19 27 C-21.97837378 22.62551351 -22.63300019 19.24485875 -22 14 C-19.85572899 7.85539545 -16.8058992 4.17931157 -11.1171875 0.921875 C-7.4628656 -0.66930576 -3.90493667 -0.54424205 0 0 Z " fill="#000002" transform="translate(646,230)"/>
<path d="M0 0 C4.07116944 3.32121717 6.85731519 6.31044277 7.8984375 11.59375 C8.18847385 16.62104667 7.84709873 20.0779199 4.625 24.0625 C1.42828266 27.43681275 -1.35063608 27.81496501 -5.875 28.25 C-11.32257448 27.79603546 -15.50517077 25.85218446 -19.5625 22.1875 C-21.51913976 18.04402758 -22.22648465 14.23754342 -21.0703125 9.81640625 C-17.39223292 1.20709607 -9.12690801 -3.69422467 0 0 Z " fill="#000002" transform="translate(647.625,328.0625)"/>
<path d="M0 0 C4.86987836 2.43493918 7.21711438 4.84944153 9 10 C9.5507148 13.8932477 9.36290876 17.14047925 7.8125 20.8125 C5.19788626 23.96806831 3.04633616 25.60873114 -1.04296875 26.390625 C-6.86323639 26.83140258 -10.0219969 25.16050254 -14.46875 21.5078125 C-16.97657962 19.03836803 -17.00914873 17.89021522 -17.3125 14.25 C-17.24019921 9.81555162 -15.93219923 7.39517806 -13 4 C-8.65214062 0.3284743 -5.67458104 -0.81065443 0 0 Z " fill="#000002" transform="translate(567,120)"/>
<path d="M0 0 C3.25394115 2.10150366 4.65126149 3.59349832 5.58984375 7.37890625 C6.19141741 11.91436609 6.63343247 16.0498513 4 20 C0.32493265 23.22960464 -3.14699814 23.46489874 -7.8515625 23.28515625 C-12.03193562 22.73030673 -14.1833113 20.98565878 -16.8125 17.8125 C-18.80980035 13.0820518 -18.77917258 8.94793145 -16.875 4.1875 C-12.15247575 -1.32211162 -6.67757099 -1.95531084 0 0 Z " fill="#529287" transform="translate(970,589)"/>
<path d="M0 0 C3.28773754 2.72812264 4.66107252 4.27505203 5.48046875 8.4453125 C5.72124949 12.8053961 5.39648514 15.33919143 3.125 19.125 C-1.30158302 21.78094981 -4.96528197 21.98924971 -10 21 C-12.92607137 19.66622851 -13.84778431 18.59369583 -16 16 C-17.27298235 11.88152769 -17.29220314 9.79971384 -15.8125 5.75 C-11.7387188 -0.4309094 -7.1437521 -1.84752209 0 0 Z " fill="#000002" transform="translate(723,160)"/>
<path d="M0 0 C3.4920949 2.92580924 4.88170221 4.74604343 5.3125 9.3125 C5 13 5 13 3.5625 15.9375 C0.32857097 18.54041849 -1.66710194 18.72944996 -5.73828125 18.48046875 C-9.77272458 17.62341084 -11.3506926 16.19275507 -14 13 C-14.75545209 8.76946832 -14.52309735 6.84069217 -12.25 3.1875 C-8.11935804 -0.82840191 -5.67537886 -1.65531883 0 0 Z " fill="#000002" transform="translate(564,238)"/>
<path d="M0 0 C0.33 0 0.66 0 1 0 C1 60.72 1 121.44 1 184 C0.67 184 0.34 184 0 184 C0 123.28 0 62.56 0 0 Z " fill="#529287" transform="translate(1168,578)"/>
<path d="M0 0 C0.33 0 0.66 0 1 0 C1 39.93 1 79.86 1 121 C0.67 121 0.34 121 0 121 C0 81.07 0 41.14 0 0 Z " fill="#529287" transform="translate(586,640)"/>
<path d="M0 0 C0.33 0 0.66 0 1 0 C1 39.6 1 79.2 1 120 C0.67 120 0.34 120 0 120 C0 80.4 0 40.8 0 0 Z " fill="#529287" transform="translate(1012,640)"/>
<path d="M0 0 C28.38 0 56.76 0 86 0 C86 0.33 86 0.66 86 1 C57.62 1 29.24 1 0 1 C0 0.67 0 0.34 0 0 Z " fill="#529287" transform="translate(302,684)"/>
<path d="M0 0 C2 3 2 3 1.6875 5.625 C1 8 1 8 0 9 C-5.41176471 9.47058824 -5.41176471 9.47058824 -7.875 7.5 C-8.24625 7.005 -8.6175 6.51 -9 6 C-8.39816251 3.97954558 -7.72693904 1.97888961 -7 0 C-4.27584084 -1.36207958 -2.87220643 -0.86166193 0 0 Z " fill="#000002" transform="translate(713,290)"/>
<path d="M0 0 C16.5 0 33 0 50 0 C50 0.33 50 0.66 50 1 C33.5 1 17 1 0 1 C0 0.67 0 0.34 0 0 Z " fill="#529287" transform="translate(99,672)"/>
<path d="M0 0 C0.33 0 0.66 0 1 0 C1 6.93 1 13.86 1 21 C0.67 21 0.34 21 0 21 C0 14.07 0 7.14 0 0 Z " fill="#529287" transform="translate(429,690)"/>
<path d="M0 0 C3.3 0 6.6 0 10 0 C10 0.33 10 0.66 10 1 C6.7 1 3.4 1 0 1 C0 0.67 0 0.34 0 0 Z " fill="#529287" transform="translate(1074,627)"/>
<path d="M0 0 C3.3 0 6.6 0 10 0 C10 0.33 10 0.66 10 1 C6.7 1 3.4 1 0 1 C0 0.67 0 0.34 0 0 Z " fill="#529287" transform="translate(648,627)"/>
<path d="M0 0 C2.97 0 5.94 0 9 0 C9 0.33 9 0.66 9 1 C6.03 1 3.06 1 0 1 C0 0.67 0 0.34 0 0 Z " fill="#529287" transform="translate(489,627)"/>
<path d="M0 0 C2.97 0 5.94 0 9 0 C9 0.33 9 0.66 9 1 C6.03 1 3.06 1 0 1 C0 0.67 0 0.34 0 0 Z " fill="#529287" transform="translate(341,627)"/>
<path d="M0 0 C1.98 0 3.96 0 6 0 C6 0.33 6 0.66 6 1 C4.02 1 2.04 1 0 1 C0 0.67 0 0.34 0 0 Z " fill="#529287" transform="translate(254,627)"/>
<path d="M0 0 C3 1 3 1 3 1 Z " fill="#529287" transform="translate(826,580)"/>
<path d="M0 0 C2 1 2 1 2 1 Z " fill="#529287" transform="translate(1021,631)"/>
<path d="M0 0 C2 1 2 1 2 1 Z " fill="#529287" transform="translate(595,631)"/>
<path d="M0 0 C2 1 2 1 2 1 Z " fill="#529287" transform="translate(201,631)"/>
<path d="" fill="#529287" transform="translate(0,0)"/>
<path d="" fill="#529287" transform="translate(0,0)"/>
</svg>
